<svg xmlns="http://www.w3.org/2000/svg" xmlns:xlink="http://www.w3.org/1999/xlink" width="183" height="210" viewBox="0 0 183 210">
    <defs>
        <path id="a" d="M.014.18h119.752v65.806H.014z"/>
    </defs>
    <g fill="none" fill-rule="evenodd" transform="translate(1 1)">
        <path fill="#E7E1DD" d="M70.812 116L58.1 129.126 54 145.024 61.188 149l11.448-10.694L78 119.976 70.812 116M126 143.334l-1.148-17.563L114.746 112 107 114.666v14.883l9.444 11.413 1.81 5.038 7.746-2.666"/>
        <path fill="#F0AF9F" d="M107.405 114.301L95.588 113 90 117.758v8.474L100.437 156s15.881-6.775 16.563-15.032l-9.595-26.667"/>
        <path fill="#EBA08D" d="M89.633 126.725l17.225 9.65a4.154 4.154 0 0 1 1.594 5.693c-1.149 2.008-3.724 2.714-5.752 1.577a4.154 4.154 0 0 1 1.594 5.693c-1.149 2.008-3.724 2.715-5.752 1.578a4.154 4.154 0 0 1 1.594 5.693c-1.148 2.008-3.723 2.714-5.752 1.578a4.154 4.154 0 0 1 1.594 5.693c-1.148 2.008-3.723 2.714-5.752 1.577L61 149.083 77.631 120l12.002 6.725"/>
        <path fill="#C6C3BE" d="M64 146.55L55.1 141l-1.1 4.807L60.724 150 64 146.55"/>
        <path fill="#00AAB7" d="M71 116.103L54.53 145 33 132.897 49.469 104 71 116.103"/>
        <path fill="#C6C3BE" d="M124.244 139.501L117 141.96l1.473 4.041 7.527-2.553-.295-4.447-1.461.501"/>
        <path fill="#DE4C5C" d="M149 135.742L138.215 104 115 112.258 126.03 144l22.97-8.258"/>
        <path fill="#C3344A" d="M149 135.442L147.511 131 124 139.569l1.519 4.431L149 135.442"/>
        <path fill="#009BAB" d="M54.74 145L33 132.92l2.26-3.92L57 141.08 54.74 145"/>
        <path fill="#F0AF9F" d="M95 113.07c-4.486-.504-8.83 1.77-11.008 5.762l-6.468 11.852c-1.124 2.06-.38 4.651 1.66 5.787a4.198 4.198 0 0 0 5.731-1.676l4.464-8.18L95 113.069"/>
        <g transform="translate(31 102)">
            <mask id="b" fill="#fff">
                <use xlink:href="#a"/>
            </mask>
            <path fill="#D69584" d="M65.056 62.121c.052-.092.096-.185.14-.279l.024-.048-32.609-18.469-2.242 3.963 28.984 16.414a4.166 4.166 0 0 0 2.787.48 4.177 4.177 0 0 0 2.916-2.061" mask="url(#b)"/>
            <path fill="#0A090B" d="M95.954 39.54l-6.047-17.21c-.305-.868-1.334-1.393-2.237-1.074a1.779 1.779 0 0 0-1.074 2.238l6.05 17.215-4.335 1.525-9.933-28.294 4.326-1.522 1.602 4.558a1.754 1.754 0 0 0 2.237 1.073c.893-.313 1.386-1.347 1.073-2.238l-1.601-4.557L106.068 4.2l9.72 28.29-19.834 7.05zM71.4 51.81a6.075 6.075 0 0 0-.133-.61 5.921 5.921 0 0 0 3.564-2.792 5.925 5.925 0 0 0 .558-4.494 5.901 5.901 0 0 0 3.565-2.795c1.595-2.82.567-6.507-2.243-8.099l-17.081-9.673-.008-.004-.01-.006c-.806-.453-1.923-.136-2.373.672l-.006.013-.003.005L52.8 32.07a2.452 2.452 0 0 1-3.302.957c-1.16-.64-1.596-2.143-.956-3.304l6.415-11.65a9.29 9.29 0 0 1 9.19-4.769l10.696 1.188 9.028 25.691c-.925 4.62-7.764 9.146-12.473 11.63zm-5.215 3.294a2.422 2.422 0 0 1-1.844-.219L52.24 48.033a1.754 1.754 0 1 0-1.728 3.055l12.101 6.854a2.433 2.433 0 0 1-2.395 4.233l-27.456-15.55 14.765-26.098 1.581.896-3.637 6.605c-1.559 2.83-.484 6.519 2.336 8.073a5.898 5.898 0 0 0 4.518.503 5.9 5.9 0 0 0 3.55-2.84l3.572-6.487s15.524 8.792 15.536 8.8c1.149.65 1.568 2.166.918 3.314a2.433 2.433 0 0 1-3.313.919l-12.101-6.854a1.754 1.754 0 1 0-1.728 3.055l12.1 6.854a2.436 2.436 0 0 1 .919 3.315 2.433 2.433 0 0 1-3.313.918l-12.101-6.853a1.754 1.754 0 1 0-1.729 3.055l12.101 6.853c1.153.653 1.571 2.162.919 3.315-.327.577-.867.97-1.47 1.137zM18.911 4.32L37.42 14.804 22.655 40.902 4.145 30.42 18.912 4.32zm10.796 40.575l-3.999-2.264 14.765-26.099 3.999 2.264-14.765 26.099zM107.917.377a1.753 1.753 0 0 0-1.346-.076L75.929 11.08 64.535 9.814a12.788 12.788 0 0 0-12.65 6.563l-1.085 1.97L19.113.401a1.772 1.772 0 0 0-2.391.663L.228 30.218a1.756 1.756 0 0 0 .663 2.392l57.597 32.62a5.944 5.944 0 0 0 8.095-2.244 5.927 5.927 0 0 0 .558-4.494 5.894 5.894 0 0 0 3.23-2.27c1.215-.556 4.461-2.12 7.801-4.384 3.365-2.28 5.825-4.587 7.37-6.9l.04.117a1.772 1.772 0 0 0 2.238 1.074l30.779-10.914a1.756 1.756 0 0 0 1.072-2.225L108.81 1.387a1.754 1.754 0 0 0-.894-1.01z" mask="url(#b)"/>
        </g>
        <path fill="#0A090B" d="M93 78.29v-8.58c0-.944-.895-1.71-2-1.71s-2 .766-2 1.71v8.58c0 .944.895 1.71 2 1.71s2-.766 2-1.71M71.26 86c.307 0 .618-.081.9-.252a1.752 1.752 0 0 0 .589-2.4l-4.518-7.504a1.737 1.737 0 0 0-2.39-.592 1.752 1.752 0 0 0-.59 2.4l4.518 7.504c.327.543.902.844 1.491.844M55.498 101.792c.825.47 1.873.116 2.306-.776.438-.903.117-2.02-.718-2.494l-7.584-4.31c-.835-.474-1.867-.126-2.306.777-.438.903-.117 2.02.718 2.494l7.584 4.31M116.16 75.252a1.736 1.736 0 0 0-2.391.592l-4.518 7.508a1.753 1.753 0 0 0 .59 2.4c.813.494 1.9.225 2.39-.591l4.518-7.508a1.753 1.753 0 0 0-.59-2.4M131.498 94.212l-7.584 4.31c-.835.474-1.156 1.591-.718 2.495.432.89 1.483 1.244 2.306.776l7.584-4.31c.835-.474 1.156-1.59.718-2.494-.439-.904-1.471-1.251-2.306-.777"/>
        <circle cx="90.5" cy="117.5" r="90.5" stroke="#55AE47"/>
        <circle cx="91" cy="27" r="27" fill="#E5E5E5" stroke="#55AF47"/>
        <text fill="#55AE47" font-family="Raleway-Bold, Raleway" font-size="24" font-weight="bold">
            <tspan x="84.148" y="32">4</tspan>
        </text>
    </g>
</svg>
