<svg xmlns="http://www.w3.org/2000/svg" width="183" height="210" viewBox="0 0 183 210">
    <g fill="none" fill-rule="evenodd" transform="translate(1 1)">
        <path fill="#C33831" d="M105.5 136.21c7.903-3.95 14.243 2.368 10.291 10.291 3.952 7.903-2.388 14.241-10.291 10.29-7.903 3.951-14.243-2.387-10.291-10.29-3.952-7.923 2.388-14.242 10.291-10.29z"/>
        <path fill="#FFF" d="M128 90.213V165H53V70h54.73v20.213H128zm-12.162 55.767c3.891-7.782-2.352-13.988-10.135-10.107-7.784-3.88-14.027 2.325-10.135 10.107-3.892 7.761 2.351 13.987 10.135 10.106 7.783 3.88 14.026-2.345 10.135-10.106z"/>
        <path fill="#AFB6BB" d="M128 90h-20V70z"/>
        <path fill="#231F20" d="M129.995 90.224c0-.525-.2-1.042-.589-1.428L109.15 68.592a2.018 2.018 0 0 0-1.432-.587V68H53.026A2.023 2.023 0 0 0 51 70.02v94.96c0 1.115.907 2.02 2.026 2.02h74.948a2.023 2.023 0 0 0 2.026-2.02V90.224h-.005zm-20.251-15.326l13.34 13.306h-13.34V74.898zM55.05 162.959V72.041h50.641v18.183c0 1.116.907 2.02 2.026 2.02h18.23v70.715H55.052z"/>
        <path fill="#231F20" d="M117.681 136.991c-1.569-2.536-4.298-3.991-7.487-3.991-1.538 0-3.113.336-4.694 1-1.58-.664-3.156-1-4.694-1-3.189 0-5.917 1.455-7.486 3.991-1.647 2.662-1.751 6.083-.318 9.509-1.433 3.42-1.33 6.838.316 9.5 1.57 2.543 4.302 4 7.495 4 1.536 0 3.11-.335 4.687-.998 1.578.663 3.15.998 4.687.998 3.193 0 5.924-1.458 7.495-4 1.646-2.663 1.75-6.081.316-9.5 1.433-3.427 1.33-6.848-.317-9.509zm-3.769 10.427c1.21 2.419 1.314 4.761.284 6.427-.819 1.326-2.243 2.057-4.009 2.057-1.191 0-2.46-.333-3.77-.988a2.05 2.05 0 0 0-1.833 0c-1.31.655-2.579.988-3.771.988-1.766 0-3.19-.73-4.01-2.056-1.029-1.666-.925-4.01.285-6.428a2.051 2.051 0 0 0 0-1.832c-1.21-2.427-1.313-4.773-.283-6.438.817-1.322 2.238-2.05 4-2.05 1.194 0 2.466.333 3.779.99a2.051 2.051 0 0 0 1.832 0c1.313-.657 2.584-.99 3.778-.99 1.763 0 3.184.728 4.001 2.05 1.031 1.664.927 4.011-.284 6.438a2.051 2.051 0 0 0 .001 1.832z"/>
        <path fill="#231F20" d="M104 145h4v-4h-4zM102 151h8v-4h-8zM60 152h24v-4H60zM80 159h4v-4h-4zM74 159h4v-4h-4zM60 159h4v-4h-4zM60 80h12v-4H60zM60 86h24v-4H60zM74 102h32v-4H74zM60 110h61v-4H60zM60 118h61v-4H60zM60 127h49v-4H60zM117 127h4v-4h-4zM111 127h4v-4h-4z"/>
        <circle cx="90.5" cy="117.5" r="90.5" stroke="#55AE47"/>
        <circle cx="91" cy="27" r="27" fill="#E5E5E5" stroke="#55AF47"/>
        <text fill="#55AE47" font-family="Raleway-Bold, Raleway" font-size="24" font-weight="bold">
            <tspan x="84.304" y="32">3</tspan>
        </text>
    </g>
</svg>
