<svg xmlns="http://www.w3.org/2000/svg" xmlns:xlink="http://www.w3.org/1999/xlink" width="183" height="210" viewBox="0 0 183 210">
    <defs>
        <path id="a" d="M.013 0H107v102H.013z"/>
    </defs>
    <g fill="none" fill-rule="evenodd" transform="translate(1 1)">
        <path fill="#F3C0B6" d="M112 93v16.266c0 7.07-3.897 13.595-10.2 17.08a21.307 21.307 0 0 1-20.58.01l-.02-.01c-6.303-3.485-10.2-10.01-10.2-17.08V98.334L112 93"/>
        <path fill="#00A7B8" d="M70 116h-4.216c-2.642 0-4.784-2.234-4.784-4.99v-9.02c0-2.756 2.142-4.99 4.784-4.99H70M111 116h4.216c2.642 0 4.784-2.234 4.784-4.99v-9.02c0-2.756-2.142-4.99-4.784-4.99H111v19"/>
        <path fill="#00A7B8" d="M70 116h-4.216c-2.642 0-4.784-2.234-4.784-4.99v-9.02c0-2.756 2.142-4.99 4.784-4.99H70v19"/>
        <path fill="#486BA5" d="M110 90.036C107.338 81.878 99.847 76 91.022 76c-10.647 0-19.35 8.555-19.978 19.35-.024.413-.037.828-.037 1.248l.022-.003L71 99h23.279c3.53 0 6.977-1.103 9.883-3.163L110 91.699l.001-1.663"/>
        <path fill="#B3D9DA" d="M99.168 130v6.538l16.36 4.44A19.61 19.61 0 0 1 130 159.907V167H50v-7.095a19.61 19.61 0 0 1 14.469-18.929l16.348-4.438V130h18.35"/>
        <path fill="#F3C0B6" d="M81 135.658L90.008 166 99 135.658V127H81.045L81 135.658"/>
        <g transform="translate(37 67)">
            <mask id="b" fill="#fff">
                <use xlink:href="#a"/>
            </mask>
            <path fill="#EFA059" d="M57.233 55.775h-4.841a2.444 2.444 0 0 1-2.445-2.444V51.16a2.444 2.444 0 0 1 2.445-2.445h4.84a2.444 2.444 0 0 1 2.445 2.445v2.17a2.445 2.445 0 0 1-2.444 2.445" mask="url(#b)"/>
            <path fill="#0A090B" d="M56.254 97.82l7.853-25.906 14.453 3.92c7.64 2.072 12.974 9.048 12.973 16.965v5.02H56.254zm-40.79-5.025c0-7.914 5.335-14.89 12.972-16.962l14.441-3.92 7.868 25.907h-35.28v-5.025zm38.05-27.857c2.397 0 4.793-.376 7.091-1.125v5.243l-7.107 23.447-7.12-23.448v-5.256c2.31.76 4.723 1.14 7.136 1.14zm4.073-11.607a.355.355 0 0 1-.355.354h-4.84a.355.355 0 0 1-.355-.354V51.16c0-.196.159-.354.354-.354h4.841c.196 0 .355.159.355.354v2.17zM35.318 42.855v-8.994h21.473a19.63 19.63 0 0 0 11.19-3.484l3.618-2.495c.042.503.064 1.01.064 1.523 0 .148.016.292.045.431v13.02c0 2.715-.624 5.345-1.766 7.717h-8.215a4.54 4.54 0 0 0-4.495-3.948h-4.84a4.54 4.54 0 0 0-4.535 4.535v2.17a4.54 4.54 0 0 0 4.534 4.536h4.841a4.542 4.542 0 0 0 4.305-3.113h5.609a17.763 17.763 0 0 1-4.473 3.602c-5.643 3.204-12.655 3.208-18.312.004l-.01-.005a17.841 17.841 0 0 1-9.033-15.499zm-6.792 3.573a2.87 2.87 0 0 1-2.866-2.867v-8.96a2.87 2.87 0 0 1 2.866-2.867h2.614l-.001.036v11.085c0 1.208.1 2.402.294 3.573h-2.907zM53.498 4.18c13.33 0 24.296 10.316 25.354 23.391a7.097 7.097 0 0 0-.478-.018h-2.548c-.022-.09-.05-.179-.084-.265C74.673 15.944 65.104 7.037 53.494 7.037c-11.7 0-21.328 9.045-22.272 20.516h-2.696c-.128 0-.255.004-.382.01C29.206 14.494 40.17 4.18 53.498 4.18zM81.24 43.562a2.87 2.87 0 0 1-2.866 2.866h-2.78c.193-1.17.294-2.365.294-3.573V31.734h2.486A2.87 2.87 0 0 1 81.24 34.6v8.96zM35.305 29.68c.012-.09.02-.181.02-.275 0-10.028 8.15-18.188 18.17-18.188 7.935 0 14.698 5.12 17.167 12.234l-5.053 3.484a15.468 15.468 0 0 1-8.818 2.745H35.305zm69.605 68.14h-9.197V92.8c.001-9.8-6.602-18.436-16.06-21.001l-14.868-4.033V62.81c0-.27-.053-.528-.146-.765.031-.018.064-.034.096-.052a22.018 22.018 0 0 0 9.735-11.383h3.904c3.885 0 7.046-3.162 7.046-7.047V34.6a7.03 7.03 0 0 0-2.306-5.21C82.976 13.16 69.744 0 53.498 0 37.279 0 24.066 13.116 23.883 29.307A7.031 7.031 0 0 0 21.48 34.6v8.961c0 3.886 3.161 7.048 7.046 7.048h4.03a22.037 22.037 0 0 0 9.747 11.389l.009.005.04.021a2.083 2.083 0 0 0-.155.785v4.958l-14.856 4.031c-9.453 2.566-16.056 11.2-16.056 20.997v5.025H2.09a2.09 2.09 0 0 0 0 4.18h102.82a2.09 2.09 0 0 0 0-4.18z" mask="url(#b)"/>
        </g>
        <path fill="#0A090B" d="M121.5 154c-.657 0-1.302.267-1.767.733A2.52 2.52 0 0 0 119 156.5c0 .657.267 1.302.733 1.767a2.52 2.52 0 0 0 1.767.733c.657 0 1.302-.267 1.767-.733.466-.465.733-1.11.733-1.767 0-.66-.267-1.302-.733-1.767A2.518 2.518 0 0 0 121.5 154M84.268 109.267c.465-.464.732-1.11.732-1.767 0-.657-.267-1.303-.732-1.767A2.517 2.517 0 0 0 82.5 105c-.66 0-1.302.267-1.769.733A2.519 2.519 0 0 0 80 107.5c0 .658.267 1.303.732 1.767.467.466 1.11.733 1.77.733.656 0 1.301-.267 1.766-.733M99.5 110c.66 0 1.303-.267 1.767-.733.466-.464.733-1.11.733-1.767 0-.657-.267-1.303-.733-1.767A2.515 2.515 0 0 0 99.5 105c-.657 0-1.303.267-1.767.733A2.518 2.518 0 0 0 97 107.5c0 .658.267 1.303.733 1.767.464.466 1.11.733 1.767.733M113.797 154h-8.594c-1.217 0-2.203 1.12-2.203 2.5s.986 2.5 2.203 2.5h8.594c1.217 0 2.203-1.12 2.203-2.5s-.986-2.5-2.203-2.5"/>
        <circle cx="90.5" cy="117.5" r="90.5" stroke="#55AE47"/>
        <circle cx="91" cy="27" r="27" fill="#E5E5E5" stroke="#55AF47"/>
        <text fill="#55AE47" font-family="Raleway-Bold, Raleway" font-size="24" font-weight="bold">
            <tspan x="85.072" y="32">1</tspan>
        </text>
    </g>
</svg>
