<svg xmlns="http://www.w3.org/2000/svg" xmlns:xlink="http://www.w3.org/1999/xlink" width="183" height="210" viewBox="0 0 183 210">
    <defs>
        <path id="a" d="M.013.009h89.9v74.77H.013z"/>
    </defs>
    <g fill="none" fill-rule="evenodd" transform="translate(1 1)">
        <path fill="#EEE" d="M49 151h83V95H49v56zm51.802-36.793a1.567 1.567 0 0 1-.506-2.14 1.525 1.525 0 0 1 2.115-.51l15.023 9.34c.455.283.733.785.733 1.325a1.56 1.56 0 0 1-.733 1.326l-15.023 9.34c-.25.155-.529.229-.803.229-.516 0-1.02-.263-1.312-.74a1.567 1.567 0 0 1 .506-2.14l12.89-8.015-12.89-8.015zM82.17 138.72l13.833-32.666a1.528 1.528 0 0 1 2.018-.817c.78.338 1.141 1.252.807 2.042l-13.833 32.667c-.25.59-.817.943-1.413.943-.202 0-.408-.04-.606-.126a1.563 1.563 0 0 1-.806-2.043zm-18.435-17.823l15.023-9.34a1.527 1.527 0 0 1 2.114.51c.444.733.218 1.691-.506 2.14l-12.89 8.015 12.89 8.014c.724.45.95 1.408.506 2.14-.29.478-.795.741-1.311.741-.275 0-.552-.074-.803-.23l-15.023-9.34a1.56 1.56 0 0 1-.733-1.325c0-.541.278-1.042.733-1.325z"/>
        <g transform="translate(46 80)">
            <mask id="b" fill="#fff">
                <use xlink:href="#a"/>
            </mask>
            <path fill="#5ECC66" d="M3.1 12.467h83.712V3.12H3.101v9.347zm4.65-1.558a3.11 3.11 0 0 1-3.099-3.116 3.11 3.11 0 0 1 3.1-3.115 3.11 3.11 0 0 1 3.1 3.115 3.11 3.11 0 0 1-3.1 3.116zm7.752 0c-1.71 0-3.1-1.397-3.1-3.116a3.11 3.11 0 0 1 3.1-3.115 3.11 3.11 0 0 1 3.1 3.115 3.111 3.111 0 0 1-3.1 3.116zm7.75 0a3.11 3.11 0 0 1-3.099-3.116 3.11 3.11 0 0 1 3.1-3.115 3.11 3.11 0 0 1 3.1 3.115 3.11 3.11 0 0 1-3.1 3.116z" mask="url(#b)"/>
            <path fill="#314E55" d="M0 74.78h89.913V.005H0V74.78zm3.1-3.116h83.712V15.583H3.101v56.08zm0-59.197h83.712V3.12H3.101v9.347z" mask="url(#b)"/>
        </g>
        <path fill="#314E55" d="M57 87.5a3.5 3.5 0 1 1-7.001 0 3.5 3.5 0 0 1 7.001 0zM65 87.5a3.5 3.5 0 1 1-7 0 3.5 3.5 0 0 1 7 0zM73 87.5a3.5 3.5 0 1 1-7.001 0 3.5 3.5 0 0 1 7.001 0zM82.937 140.872c.198.086.405.128.608.128.6 0 1.17-.357 1.42-.95l13.91-32.867a1.572 1.572 0 0 0-.812-2.055 1.535 1.535 0 0 0-2.028.822l-13.91 32.867a1.573 1.573 0 0 0 .812 2.055zM63.729 124.339l14.942 9.43c.25.156.525.231.798.231.514 0 1.016-.266 1.305-.748.441-.74.216-1.707-.503-2.16L67.45 123l12.822-8.092c.72-.454.943-1.42.502-2.16a1.506 1.506 0 0 0-2.103-.516l-14.942 9.43a1.581 1.581 0 0 0-.729 1.338c0 .545.276 1.053.729 1.338zM100.226 133.252c.29.482.79.748 1.304.748.273 0 .55-.075.8-.232l14.941-9.43a1.58 1.58 0 0 0 .729-1.337c0-.546-.276-1.052-.729-1.339l-14.942-9.429a1.504 1.504 0 0 0-2.103.516c-.441.74-.217 1.706.503 2.16l12.821 8.092-12.821 8.09c-.72.455-.944 1.422-.503 2.161z"/>
        <circle cx="90.5" cy="117.5" r="90.5" stroke="#55AE47"/>
        <circle cx="91" cy="27" r="27" fill="#E5E5E5" stroke="#55AF47"/>
        <text fill="#55AE47" font-family="Raleway-Bold, Raleway" font-size="24" font-weight="bold">
            <tspan x="84.352" y="32">5</tspan>
        </text>
    </g>
</svg>
