<svg xmlns="http://www.w3.org/2000/svg" width="183" height="210" viewBox="0 0 183 210">
    <g fill="none" fill-rule="evenodd" transform="translate(1 1)">
        <path fill="#6CC4C9" d="M48.759 141.737h18.586V167h10.138v-28.632h27.034V167h10.138v-25.263h18.586c3.733 0 6.759-3.017 6.759-6.737v-25.263c0-3.72-3.026-6.737-6.759-6.737h-8.448c-3.732 0-6.759 3.016-6.759 6.737v13.474H99.448v8.42H82.552v-8.42H63.966v-13.474c0-3.72-3.027-6.737-6.76-6.737H48.76c-3.733 0-6.759 3.016-6.759 6.737V135c0 3.72 3.026 6.737 6.759 6.737"/>
        <path fill="#6CC4C9" d="M95 103H85l5 13 5-13"/>
        <path fill="#EEB959" d="M82.5 132h17v-8.53h8.5v-10.235c0-5.653-4.566-10.235-10.2-10.235h-1.7L91 116.647 85.9 103h-1.7c-5.634 0-10.2 4.582-10.2 10.235v10.236h8.5V132"/>
        <path fill="#6CC4C9" d="M56 83c5.523 0 10 4.477 10 10s-4.477 10-10 10-10-4.477-10-10 4.477-10 10-10"/>
        <path fill="#EEB959" d="M90 83c5.523 0 10 4.477 10 10s-4.477 10-10 10-10-4.477-10-10 4.477-10 10-10"/>
        <path fill="#6CC4C9" d="M125 83c5.523 0 10 4.477 10 10s-4.477 10-10 10-10-4.477-10-10 4.477-10 10-10M73.429 76.125H82V68H58v8.125h8.571V81l6.858-4.875"/>
        <path fill="#0F1120" d="M43.367 110.442c0-2.767 2.265-5.019 5.05-5.019h8.416c2.785 0 5.05 2.252 5.05 5.02v13.384c0 .923.754 1.673 1.684 1.673H80.4v5.02H56.833v-15.058h-3.366v16.73c0 .924.754 1.673 1.683 1.673H70.3c2.784 0 5.05 2.252 5.05 5.02v26.769h-6.733V142.23c0-.924-.754-1.673-1.684-1.673H48.417c-2.785 0-5.05-2.252-5.05-5.02v-25.096zm3.366-16.73c0-4.613 3.776-8.366 8.417-8.366s8.417 3.753 8.417 8.366c0 4.612-3.776 8.365-8.417 8.365s-8.417-3.753-8.417-8.365zm28.617 20.076c0-4.612 3.776-8.365 8.417-8.365h.516l4.641 12.299a1.686 1.686 0 1 0 3.153 0l4.64-12.299h.516c4.641 0 8.417 3.753 8.417 8.365v8.366h-6.733c-.93 0-1.684.75-1.684 1.673v6.692H83.767v-6.692c0-.924-.754-1.673-1.684-1.673H75.35v-8.366zm6.733-20.076c0-4.613 3.776-8.366 8.417-8.366 4.64 0 8.417 3.753 8.417 8.366 0 4.612-3.776 8.365-8.417 8.365-4.64 0-8.417-3.753-8.417-8.365zm11.038 11.711L90.5 112.37l-2.621-6.947h5.242zm24.312 20.077c.93 0 1.684-.75 1.684-1.673v-13.385c0-2.767 2.265-5.019 5.05-5.019h8.416c2.785 0 5.05 2.252 5.05 5.02v25.095c0 2.768-2.265 5.02-5.05 5.02h-18.516c-.93 0-1.684.75-1.684 1.673v23.423h-6.733v-26.77c0-2.767 2.266-5.019 5.05-5.019h15.15c.93 0 1.683-.75 1.683-1.673v-16.73h-3.366v15.057H100.6V125.5h16.833zm0-31.788c0-4.613 3.776-8.366 8.417-8.366 4.64 0 8.417 3.753 8.417 8.366 0 4.612-3.776 8.365-8.417 8.365s-8.417-3.753-8.417-8.365zm-14.961 43.5H78.528a8.33 8.33 0 0 0-1.498-3.347h26.94a8.33 8.33 0 0 0-1.498 3.347zm-55.739 6.523V169H50.1v-25.096h15.15v23.423c0 .923.754 1.673 1.683 1.673h10.1c.93 0 1.684-.75 1.684-1.673v-26.77h10.1v25.097h-6.734V169h16.834v-3.346h-6.734v-25.096h10.1v26.769c0 .923.754 1.673 1.684 1.673h10.1c.929 0 1.683-.75 1.683-1.673v-23.423h15.15V169h3.367v-25.265c3.836-.778 6.733-4.156 6.733-8.197v-25.096c0-4.154-3.07-7.584-7.068-8.23 2.272-2.136 3.701-5.153 3.701-8.5 0-6.459-5.285-11.712-11.783-11.712-6.498 0-11.783 5.253-11.783 11.712 0 4.109 2.144 7.724 5.375 9.814-2.226 1.507-3.692 4.044-3.692 6.916v11.712h-6.733v-8.366c0-5.986-4.545-10.931-10.386-11.62 2.245-2.134 3.652-5.132 3.652-8.456C102.283 87.253 96.998 82 90.5 82c-6.498 0-11.783 5.253-11.783 11.712 0 3.324 1.407 6.322 3.653 8.455-5.842.69-10.387 5.635-10.387 11.621v8.366H65.25v-11.712c0-2.872-1.466-5.409-3.692-6.916 3.23-2.09 5.375-5.705 5.375-9.814C66.933 87.253 61.648 82 55.15 82c-6.498 0-11.783 5.253-11.783 11.712 0 3.347 1.429 6.364 3.701 8.5-3.998.646-7.068 4.076-7.068 8.23v25.096c0 4.04 2.897 7.419 6.733 8.197z"/>
        <path fill="#0F1120" d="M88 125h3v-3h-3zM60.375 74.5v-5.1h20.25v5.1h-6.75c-.364 0-.72.119-1.013.34l-4.05 3.06v-1.7c0-.938-.755-1.7-1.687-1.7h-6.75zm5.996 8.322a1.686 1.686 0 0 0 1.767-.162l6.299-4.76h7.876c.931 0 1.687-.762 1.687-1.7v-8.5c0-.938-.756-1.7-1.688-1.7H58.689c-.932 0-1.688.762-1.688 1.7v8.5c0 .938.756 1.7 1.688 1.7h6.75v3.4c0 .644.36 1.232.933 1.521zM98 75h3v-3h-3zM105 75h3v-3h-3zM112 75h3v-3h-3z"/>
        <circle cx="90.5" cy="117.5" r="90.5" stroke="#55AE47"/>
        <circle cx="91" cy="27" r="27" fill="#E5E5E5" stroke="#55AF47"/>
        <text fill="#55AE47" font-family="Raleway-Bold, Raleway" font-size="24" font-weight="bold">
            <tspan x="84.232" y="32">2</tspan>
        </text>
    </g>
</svg>
