<?xml version="1.0" encoding="iso-8859-1"?>
<!-- Generator: Adobe Illustrator 19.0.0, SVG Export Plug-In . SVG Version: 6.00 Build 0)  -->
<svg xmlns="http://www.w3.org/2000/svg" xmlns:xlink="http://www.w3.org/1999/xlink" version="1.1" id="Capa_1" x="0px" y="0px" viewBox="0 0 480 480" style="enable-background:new 0 0 480 480;" xml:space="preserve" width="512px" height="512px">
<g>
	<g>
		<g>
			<path d="M0,0v480h480V0H0z M464,464H16V80h448V464z M464,64H16V16h448V64z" fill="#55ae47"/>
			<rect x="32" y="32" width="16" height="16" fill="#55ae47"/>
			<rect x="64" y="32" width="16" height="16" fill="#55ae47"/>
			<rect x="96" y="32" width="16" height="16" fill="#55ae47"/>
			<rect x="432" y="32" width="16" height="16" fill="#55ae47"/>
			<path d="M432,320H288v112h144V320z M416,416H304v-80h112V416z" fill="#55ae47"/>
			<rect x="288" y="112" width="16" height="16" fill="#55ae47"/>
			<rect x="320" y="112" width="112" height="16" fill="#55ae47"/>
			<rect x="288" y="144" width="144" height="16" fill="#55ae47"/>
			<rect x="288" y="176" width="144" height="16" fill="#55ae47"/>
			<rect x="288" y="208" width="144" height="16" fill="#55ae47"/>
			<rect x="288" y="240" width="144" height="16" fill="#55ae47"/>
			<rect x="288" y="272" width="144" height="16" fill="#55ae47"/>
			<rect x="48" y="320" width="16" height="16" fill="#55ae47"/>
			<rect x="80" y="320" width="176" height="16" fill="#55ae47"/>
			<rect x="48" y="352" width="208" height="16" fill="#55ae47"/>
			<rect x="48" y="384" width="208" height="16" fill="#55ae47"/>
			<rect x="48" y="416" width="208" height="16" fill="#55ae47"/>
			<path d="M256,112H48v176h208V112z M240,272H67.04l44.8-44.8l28.8,28.8H176v-16h-28.688l-8-8L184,187.28l56,56V272z M240,220.688     l-56-56l-56,56l-16.104-16.112L64,252.416V128h176V220.688z" fill="#55ae47"/>
		</g>
	</g>
</g>
<g>
</g>
<g>
</g>
<g>
</g>
<g>
</g>
<g>
</g>
<g>
</g>
<g>
</g>
<g>
</g>
<g>
</g>
<g>
</g>
<g>
</g>
<g>
</g>
<g>
</g>
<g>
</g>
<g>
</g>
</svg>
