<?xml version="1.0" encoding="iso-8859-1"?>
<!-- Generator: Adobe Illustrator 19.0.0, SVG Export Plug-In . SVG Version: 6.00 Build 0)  -->
<svg version="1.1" id="Capa_1" xmlns="http://www.w3.org/2000/svg" xmlns:xlink="http://www.w3.org/1999/xlink" x="0px" y="0px"
	 viewBox="0 0 512 512" style="enable-background:new 0 0 512 512;" xml:space="preserve">
<path style="fill:#C1EE92;" d="M196,294l-95.036,27.414C64.86,331.829,40,364.873,40,402.45V502h432v-99.55
	c0-37.577-24.86-70.621-60.964-81.036L316,294H196z"/>
<polygon style="fill:#FFFFFF;" points="331,361 331,298.327 316,294 196,294 181,298.327 181,361 256,312 "/>
<path style="fill:#FFD6BE;" d="M353.365,126.125v78.909c0,34.301-18.45,65.951-48.298,82.853l0,0
	c-30.209,17.151-67.207,17.172-97.436,0.054l-0.096-0.054c-29.848-16.902-48.298-48.552-48.298-82.853V152L353.365,126.125z"/>
<g>
	<path style="fill:#619EFF;" d="M157.633,232.127h-20.895c-13.099,0-23.716-10.618-23.716-23.716v-42.872
		c0-13.098,10.617-23.715,23.716-23.715h20.895"/>
	<g>
		<path style="fill:#B3D0FF;" d="M354.367,232.127h20.896c13.098,0,23.715-10.617,23.715-23.715V165.54
			c0-13.098-10.617-23.716-23.715-23.716h-20.896V232.127z"/>
		<path style="fill:#B3D0FF;" d="M157.633,232.127h-20.895c-13.099,0-23.716-10.618-23.716-23.716v-42.872
			c0-13.098,10.617-23.715,23.716-23.715h20.895V232.127z"/>
	</g>
</g>
<path style="fill:#77ABFF;" d="M348.128,109.78c-12.895-38.429-49.176-66.113-91.918-66.113c-51.565,0-93.72,40.296-96.758,91.139
	l0,0l0,0c-0.116,1.945-0.182,3.904-0.182,5.879l0.109-0.012L159.238,152h112.746c17.098,0,33.792-5.196,47.869-14.9l28.272-19.488
	L348.128,109.78z"/>
<path style="fill:#FED045;" d="M268.905,266.847h-12.779c-9.327,0-16.889-7.561-16.889-16.889l0,0
	c0-9.327,7.561-16.889,16.889-16.889h12.779c9.327,0,16.889,7.561,16.889,16.889l0,0
	C285.794,259.286,278.233,266.847,268.905,266.847z"/>
<path d="M142.667,436H112c-5.523,0-10,4.478-10,10s4.477,10,10,10h30.667c5.523,0,10-4.478,10-10S148.189,436,142.667,436z"/>
<path d="M178.52,436c-2.64,0-5.21,1.069-7.07,2.93c-1.86,1.86-2.93,4.44-2.93,7.07s1.07,5.21,2.93,7.069
	c1.86,1.86,4.43,2.931,7.07,2.931c2.63,0,5.21-1.07,7.07-2.931c1.86-1.859,2.93-4.439,2.93-7.069c0-2.641-1.07-5.21-2.93-7.07
	S181.15,436,178.52,436z"/>
<path d="M463.048,345.734c-12.398-16.48-29.426-28.213-49.241-33.929l-88.742-25.598c14.231-11.747,25.064-26.997,31.515-44.08
	h18.681c18.59,0,33.715-15.124,33.715-33.715V165.54c0-9.866-4.26-18.756-11.037-24.927C397.28,62.966,333.968,0,256.227,0
	C178.62,0,115.393,62.75,114.52,140.212c-7.04,6.184-11.497,15.242-11.497,25.327v42.872c0,18.591,15.125,33.716,33.715,33.716
	h19.285c6.427,17.014,17.205,32.211,31.367,43.949l-89.198,25.73c-19.815,5.716-36.843,17.448-49.241,33.929S30,381.827,30,402.45
	V502c0,5.522,4.477,10,10,10h432c5.523,0,10-4.478,10-10v-99.55C482,381.827,475.447,362.215,463.048,345.734z M205.335,298.075
	c11.334,6.006,23.533,9.86,35.981,11.573l-45.181,29.518L205.335,298.075z M306.73,298.365l9.135,40.802l-45.072-29.447
	C283.216,308.067,295.401,304.286,306.73,298.365z M169.173,142c0.057-0.432,0.096-0.868,0.096-1.315
	c0-47.981,39.001-87.018,86.94-87.018c37.975,0,70.336,24.497,82.15,58.53l-24.182,16.669C301.714,137.458,287.124,142,271.984,142
	H169.173z M388.977,208.412c0,7.563-6.152,13.715-13.715,13.715h-13.306c0.926-5.602,1.409-11.315,1.409-17.094v-53.209h11.897
	c7.563,0,13.715,6.153,13.715,13.716V208.412z M256.227,20c63.783,0,116.26,49.355,121.322,111.91
	c-0.757-0.051-1.518-0.086-2.287-0.086h-12.195c-0.106-0.434-0.239-0.858-0.4-1.268c-5.116-54.277-50.904-96.89-106.458-96.89
	c-55.986,0-102.055,43.277-106.571,98.157h-12.901c-0.614,0-1.224,0.019-1.83,0.051C139.988,69.336,192.456,20,256.227,20z
	 M136.738,222.127c-7.563,0-13.715-6.153-13.715-13.716v-42.872c0-7.563,6.153-13.715,13.715-13.715h12.508
	c-0.001,0.059-0.009,0.116-0.009,0.176v53.033c0,5.779,0.483,11.492,1.409,17.094H136.738z M169.238,205.033V162h102.746
	c19.212,0,37.728-5.764,53.545-16.667l17.314-11.935c0.2,2.403,0.307,4.832,0.307,7.286c0,0.707,0.075,1.395,0.215,2.061v62.288
	c0,12.991-2.987,25.577-8.451,36.923h-40.337c-3.415-10.93-13.632-18.886-25.672-18.886h-12.779
	c-14.827,0-26.889,12.063-26.889,26.889c0,14.826,12.062,26.889,26.889,26.889h12.779c10.517,0,19.637-6.072,24.054-14.892h28.574
	c-6.073,6.772-13.264,12.626-21.402,17.234c-27.001,15.328-60.556,15.348-87.624,0.019l-0.043-0.023
	C185.801,264.087,169.238,235.673,169.238,205.033z M268.905,256.848h-12.779c-3.798,0-6.889-3.09-6.889-6.889
	s3.09-6.889,6.889-6.889h12.779c3.798,0,6.889,3.09,6.889,6.889S272.704,256.848,268.905,256.848z M462,492H266.1
	c0.131-0.646,0.201-1.315,0.201-2v-92c0-5.522-4.477-10-10-10s-10,4.478-10,10v92c0,0.685,0.07,1.354,0.201,2H50v-89.55
	c0-32.929,22.097-62.301,53.736-71.428l78.818-22.736l-11.312,50.529c-0.889,3.971,0.717,8.085,4.061,10.403
	s7.759,2.378,11.167,0.153L256,323.945l69.53,45.427c1.664,1.086,3.567,1.628,5.469,1.628c1.994,0,3.986-0.596,5.698-1.781
	c3.344-2.318,4.95-6.433,4.061-10.403l-11.312-50.529l78.818,22.736C439.903,340.149,462,369.521,462,402.45V492z"/>
<path d="M217.02,202.069c2.63,0,5.21-1.069,7.07-2.93c1.87-1.859,2.93-4.439,2.93-7.07c0-2.63-1.06-5.21-2.93-7.069
	c-1.86-1.86-4.43-2.931-7.07-2.931c-2.63,0-5.21,1.07-7.07,2.931c-1.86,1.859-2.93,4.439-2.93,7.069c0,2.631,1.07,5.211,2.93,7.07
	C211.81,201,214.39,202.069,217.02,202.069z"/>
<path d="M295.58,202.069c2.63,0,5.21-1.069,7.07-2.93c1.86-1.859,2.93-4.439,2.93-7.07c0-2.63-1.07-5.21-2.93-7.069
	c-1.86-1.86-4.44-2.931-7.07-2.931s-5.21,1.07-7.07,2.931c-1.86,1.859-2.93,4.439-2.93,7.069c0,2.631,1.07,5.211,2.93,7.07
	C290.37,201,292.95,202.069,295.58,202.069z"/>
<path d="M256.3,347.97c-2.63,0-5.21,1.07-7.07,2.93s-2.93,4.431-2.93,7.07c0,2.63,1.07,5.21,2.93,7.07
	c1.86,1.859,4.44,2.93,7.07,2.93s5.21-1.07,7.07-2.93c1.86-1.86,2.93-4.44,2.93-7.07s-1.07-5.21-2.93-7.07
	C261.51,349.04,258.93,347.97,256.3,347.97z"/>
<g>
</g>
<g>
</g>
<g>
</g>
<g>
</g>
<g>
</g>
<g>
</g>
<g>
</g>
<g>
</g>
<g>
</g>
<g>
</g>
<g>
</g>
<g>
</g>
<g>
</g>
<g>
</g>
<g>
</g>
</svg>
